<?xml version="1.0" encoding="UTF-8"?>
<!DOCTYPE svg PUBLIC "-//W3C//DTD SVG 1.1//EN" "http://www.w3.org/Graphics/SVG/1.1/DTD/svg11.dtd">
<svg version="1.2" xmlns="http://www.w3.org/2000/svg" xmlns:xlink="http://www.w3.org/1999/xlink" x="0" y="0" width="451" height="228" viewBox="0 0 451 228">
<style type="text/css"><![CDATA[
text { font:12px Dialog; }
]]></style>
<rect x="-486" y="-485" width="1428" height="1198" style="fill:rgb(255,255,255);stroke:none" />
<clipPath id="clip1"><path d="M14,15 L442,15 L442,213 L14,213 Z M148.9999847,113.9999924 C148.9999847,76.9969025 119.2269287,46.9999847 82.4999695,47 C45.7730293,47.0000076 15.9999771,76.9969482 16,114.0000153 C16.0000076,151.0030975 45.7730827,181.0000153 82.5000839,180.9999847 C119.2270126,180.999939 149.0000305,151.0029755 148.9999847,113.9999161 Z" /></clipPath>
<path d="M161.9990234,114.1050034 L161.9990234,44.100502 C161.9990234,39.6845016 165.5830231,36.100502 169.9990234,36.100502 L184,36.100502" style="fill:none;stroke:rgb(102,3,102);stroke-width:3" clip-path="url(#clip1)" />
<clipPath id="clip2"><path d="M14,15 L442,15 L442,213 L14,213 Z M148.9999847,113.9999924 C148.9999847,76.9969025 119.2269287,46.9999847 82.4999695,47 C45.7730293,47.0000076 15.9999771,76.9969482 16,114.0000153 C16.0000076,151.0030975 45.7730827,181.0000153 82.5000839,180.9999847 C119.2270126,180.999939 149.0000305,151.0029755 148.9999847,113.9999161 Z" /></clipPath>
<path d="M161.9990234,114.1050034 L161.9990234,96.1399994 C161.9990234,91.723999 165.5830231,88.1399994 169.9990234,88.1399994 L184,88.1399994" style="fill:none;stroke:rgb(102,3,102);stroke-width:3" clip-path="url(#clip2)" />
<clipPath id="clip3"><path d="M14,15 L442,15 L442,213 L14,213 Z M148.9999847,113.9999924 C148.9999847,76.9969025 119.2269287,46.9999847 82.4999695,47 C45.7730293,47.0000076 15.9999771,76.9969482 16,114.0000153 C16.0000076,151.0030975 45.7730827,181.0000153 82.5000839,180.9999847 C119.2270126,180.999939 149.0000305,151.0029755 148.9999847,113.9999161 Z" /></clipPath>
<path d="M161.9990234,114.1050034 L161.9990234,132.0552826 C161.9990234,136.471283 165.5830231,140.0552826 169.9990234,140.0552826 L184,140.0552826" style="fill:none;stroke:rgb(102,3,102);stroke-width:3" clip-path="url(#clip3)" />
<clipPath id="clip4"><path d="M14,15 L442,15 L442,213 L14,213 Z M148.9999847,113.9999924 C148.9999847,76.9969025 119.2269287,46.9999847 82.4999695,47 C45.7730293,47.0000076 15.9999771,76.9969482 16,114.0000153 C16.0000076,151.0030975 45.7730827,181.0000153 82.5000839,180.9999847 C119.2270126,180.999939 149.0000305,151.0029755 148.9999847,113.9999161 Z" /></clipPath>
<path d="M161.9990234,114.1050034 L161.9990234,184.0500031 C161.9990234,188.4660034 165.5830231,192.0500031 169.9990234,192.0500031 L184,192.0500031" style="fill:none;stroke:rgb(102,3,102);stroke-width:3" clip-path="url(#clip4)" />
<clipPath id="clip5"><path d="M13,14 L443,14 L443,214 L13,214 L13,14 Z" /></clipPath>
<path d="M151.9991455,114.1550064 L161.9990234,114.1050034" style="fill:none;stroke:rgb(102,3,102);stroke-width:3" clip-path="url(#clip5)" />
<clipPath id="clip6"><path d="M13,44 L153,44 L153,185 L13,185 L13,44 Z" /></clipPath>
<path d="M148.9999847,113.9999924 C148.9999847,76.9969025 119.2269287,46.9999847 82.4999695,47 C45.7730293,47.0000076 15.9999771,76.9969482 16,114.0000153 C16.0000076,151.0030975 45.7730827,181.0000153 82.5000839,180.9999847 C119.2270126,180.999939 149.0000305,151.0029755 148.9999847,113.9999161 Z" style="fill:none;stroke:rgb(102,3,102);stroke-width:3" clip-path="url(#clip6)" />
<clipPath id="clip7"><path d="M37,98 L129,98 L129,131 L37,131 L37,98 Z" /></clipPath>
<path d="M53.7199783,104.2871094 L56.2424393,104.8818359 C56.0031815,105.7841797 55.7399979,106.6591797 55.4528885,107.5068359 L60.7746658,107.5068359 L60.7746658,110.2138672 L59.8313065,110.2138672 C59.4621658,113.7480469 58.7307205,116.6157227 57.6369705,118.8168945 C58.5393143,119.9790039 59.6193924,120.9873047 60.8772049,121.8417969 C60.4670486,122.484375 59.9201736,123.3935547 59.2365799,124.5693359 C57.9992752,123.6669922 56.926033,122.5834961 56.0168533,121.3188477 C54.957283,122.6450195 53.6994705,123.7763672 52.2434158,124.7128906 C51.7785721,123.796875 51.3068924,122.9287109 50.8283768,122.1083984 C52.2707596,121.2197266 53.4978104,120.0952148 54.5095291,118.7348633 C53.7780838,117.1625977 53.214119,115.3955078 52.8176346,113.4335938 L52.2639236,114.3564453 C51.7717361,113.1533203 51.3957596,112.3261719 51.135994,111.875 C52.2434158,109.7285156 53.104744,107.1992188 53.7199783,104.2871094 Z M56.0373611,116.0073242 C56.6320877,114.4829102 57.0661697,112.5517578 57.3396072,110.2138672 L54.5607986,110.2138672 C54.9025955,112.4833984 55.394783,114.4145508 56.0373611,116.0073242 Z M40.5539627,114.0488281 L41.7639236,114.0488281 L42.0407791,110.7368164 C41.7263222,111.1811523 41.4016151,111.6289063 41.066658,112.0800781 C40.9436111,111.3828125 40.7522011,110.4121094 40.4924393,109.1679688 C41.4084511,107.8007813 42.3107948,106.1806641 43.1994705,104.3076172 L45.8654861,104.4101563 C45.6672401,104.8339844 45.4484901,105.2646484 45.2092361,105.7021484 L51.7717361,105.7021484 L51.7717361,108.0400391 L43.8454666,108.0400391 C43.606205,108.4228516 43.3566933,108.8125 43.0969315,109.2089844 L51.0744705,109.2089844 L50.910408,114.0488281 L51.9152908,114.0488281 L51.9152908,116.3457031 L50.8181229,116.3457031 L50.7053299,119.0117188 L51.9563065,119.0117188 L51.9563065,121.1855469 L50.5925369,121.1855469 C50.5515213,122.2041016 50.2934608,122.9697266 49.818367,123.4824219 C49.3432655,123.9951172 48.7263222,124.2668457 47.9675369,124.2976074 C47.2087479,124.3283691 46.1320877,124.3300781 44.7375565,124.3027344 C44.6281776,123.5097656 44.477787,122.6962891 44.2863846,121.8623047 C45.1477127,121.9580078 46.0500565,122.0058594 46.9934158,122.0058594 C47.6975136,122.0058594 48.1315994,121.7324219 48.2956619,121.1855469 L41.1691971,121.1855469 L41.5690994,116.3457031 L40.5539627,116.3457031 Z M47.9162674,113.4130859 L46.644783,114.0488281 L48.6545486,114.0488281 L48.7160721,111.3828125 L46.6242752,111.3828125 C47.102787,112.0527344 47.5334511,112.7294922 47.9162674,113.4130859 Z M44.8195877,112.0595703 L46.0910721,111.3828125 L44.2863846,111.3828125 L44.0505447,114.0488281 L46.0192947,114.0488281 C45.5886307,113.2695313 45.1887283,112.6064453 44.8195877,112.0595703 Z M44.5940018,117.0224609 L45.8757401,116.3457031 L43.8454666,116.3457031 L43.6096268,119.0117188 L45.773201,119.0117188 C45.4108925,118.328125 45.0178261,117.6650391 44.5940018,117.0224609 Z M47.7316971,118.2324219 L46.2243729,119.0117188 L48.4494705,119.0117188 L48.5725174,116.3457031 L46.5524979,116.3457031 C47.0583534,117.0908203 47.4514198,117.7197266 47.7316971,118.2324219 Z M82.4206619,114.3769531 L80.9030838,114.3769531 L80.9030838,117.5761719 L75.9812088,117.5761719 L75.9812088,118.6425781 L81.5183182,118.6425781 L81.5183182,120.6933594 L75.9812088,120.6933594 L75.9812088,121.8725586 C78.3942947,121.8862305 80.5271072,121.8623047 82.3796463,121.8007813 C82.0515213,122.6074219 81.7780838,123.3867188 81.5593338,124.1386719 C78.1687088,124.1181641 75.6975174,124.0651855 74.1457596,123.9797363 C72.5940018,123.8942871 71.3908768,123.3901367 70.5363846,122.4672852 C70.0441971,123.3491211 69.3845291,124.0839844 68.5573807,124.671875 C68.0446854,124.0908203 67.4055252,123.5234375 66.6399002,122.9697266 C66.4758377,123.5917969 66.1545486,124.0036621 65.676033,124.2053223 C65.1975174,124.4069824 64.1618729,124.4941406 62.5690994,124.4667969 C62.4323807,123.6601563 62.2614822,122.7783203 62.0564041,121.8212891 L63.6765213,121.8212891 C64.0046463,121.8212891 64.1687088,121.5546875 64.1687088,121.0214844 L64.1687088,117.237793 L62.2409744,117.7607422 L62.0153885,114.7460938 C62.7878494,114.6025391 63.5056229,114.4589844 64.1687088,114.3154297 L64.1687088,110.7470703 L62.1179276,110.7470703 L62.1179276,108.2041016 L64.1687088,108.2041016 L64.1687088,104.4101563 L66.773201,104.4101563 L66.773201,108.2041016 L68.413826,108.2041016 L68.413826,110.7470703 L66.773201,110.7470703 L66.773201,113.730957 C67.3474197,113.5874023 67.8532791,113.4472656 68.2907791,113.3105469 C68.2907791,114.390625 68.2976151,115.3066406 68.3112869,116.0585938 L66.773201,116.4995117 L66.773201,121.8007813 C66.773201,122.2246094 66.7356033,122.59375 66.660408,122.9082031 C68.1301346,121.9238281 68.9538651,120.2626953 69.1315994,117.9248047 L71.5720291,118.1708984 C71.5515213,118.8818359 71.479744,119.5483398 71.3566971,120.1704102 C71.8420486,120.8950195 72.5358963,121.387207 73.4382401,121.6469727 L73.4382401,117.5761719 L69.4187088,117.5761719 L69.4187088,115.5664063 L73.4382401,115.5664063 L73.4382401,114.3769531 L68.741951,114.3769531 L68.741951,112.2236328 L73.4382401,112.2236328 L73.4382401,111.0341797 L69.4187088,111.0341797 L69.4187088,109.0449219 L73.4382401,109.0449219 L73.4382401,108.0810547 L68.6599197,108.0810547 L68.6599197,105.9072266 L73.4382401,105.9072266 L73.4382401,104.3896484 L75.9812088,104.3896484 L75.9812088,105.9072266 L81.6823807,105.9072266 L81.6823807,108.0810547 L75.9812088,108.0810547 L75.9812088,109.0449219 L80.9030838,109.0449219 L80.9030838,112.2236328 L82.4206619,112.2236328 Z M78.4831619,111.0341797 L75.9812088,111.0341797 L75.9812088,112.2236328 L78.4831619,112.2236328 Z M78.4831619,115.5664063 L78.4831619,114.3769531 L75.9812088,114.3769531 L75.9812088,115.5664063 Z M86.3274002,112.6132813 L101.441658,112.6132813 L101.441658,120.4472656 L86.3274002,120.4472656 Z M84.3996658,110.9111328 L84.3996658,106.0917969 L92.4592361,106.0917969 C92.2131424,105.53125 92.0012283,105.0458984 91.823494,104.6357422 L95.3303299,104.2871094 C95.5217361,104.7792969 95.7404861,105.3808594 95.9865799,106.0917969 L103.3693924,106.0917969 L103.3693924,110.9111328 L100.5188065,110.9111328 L100.5188065,108.3681641 L87.2707596,108.3681641 L87.2707596,110.9111328 Z M103.9025955,123.8925781 L83.9074783,123.8925781 L83.9074783,121.4521484 L103.9025955,121.4521484 Z M98.6320877,118.4375 L98.6320877,117.3505859 L89.1369705,117.3505859 L89.1369705,118.4375 Z M98.6320877,114.6230469 L89.1369705,114.6230469 L89.1369705,115.7099609 L98.6320877,115.7099609 Z M99.698494,109.5166016 L99.698494,111.5673828 L88.0910721,111.5673828 L88.0910721,109.5166016 Z M105.5534744,106.5224609 L114.1462479,106.5224609 C113.9069901,105.8798828 113.7087479,105.3740234 113.5515213,105.0048828 L116.7097244,104.3076172 C116.9421463,104.8339844 117.2463455,105.5722656 117.6223221,106.5224609 L125.507576,106.5224609 L125.507576,108.9628906 L105.5534744,108.9628906 Z M107.5427322,110.0908203 L123.538826,110.0908203 L123.538826,112.2646484 L107.5427322,112.2646484 Z M107.5427322,113.3925781 L123.538826,113.3925781 L123.538826,115.5664063 L107.5427322,115.5664063 Z M107.5427322,124.6103516 L107.5427322,116.6943359 L123.538826,116.6943359 L123.538826,124.6103516 L120.7907791,124.6103516 L120.7907791,123.4003906 L110.2907791,123.4003906 L110.2907791,124.6103516 Z M120.7907791,119.0732422 L110.2907791,119.0732422 L110.2907791,121.0419922 L120.7907791,121.0419922 Z" style="fill:rgb(85,142,213);stroke:none" clip-path="url(#clip7)" />
<clipPath id="clip8"><path d="M182,14 L426,14 L426,58 L182,58 L182,14 Z" /></clipPath>
<path d="M184,16 L184,55 L423,55 L423,16 Z" style="fill:rgb(255,255,255);stroke:none" clip-path="url(#clip8)" />
<clipPath id="clip9"><path d="M182,14 L426,14 L426,58 L182,58 L182,14 Z" /></clipPath>
<path d="M184,16 L184,55 L423,55 L423,16 Z" style="fill:none;stroke:rgb(13,70,170)" clip-path="url(#clip9)" />
<clipPath id="clip10"><path d="M215,22 L413,22 L413,50 L215,50 L215,22 Z" /></clipPath>
<path d="M225.246109,33.9082031 L226.7568512,33.9082031 L226.7568512,44.1845703 L225.246109,44.1845703 Z M227.0722809,28.1972656 L226.8232574,28.5791016 C228.6162262,31.5341797 231.1064606,33.6481094 234.2939606,34.9208984 C233.9508514,35.4632111 233.6575623,35.9612579 233.4140778,36.4150391 C230.1601715,34.7106094 227.6976013,32.5136719 226.0263824,29.8242188 C224.3883514,32.3808594 221.903656,34.6552734 218.5722809,36.6474609 C218.3287811,36.2490234 218.0465546,35.8118439 217.7256012,35.3359375 C221.1787109,33.4212189 223.7464294,31.0416641 225.4287262,28.1972656 Z M251.883316,39.8847656 C251.5070038,40.3385391 251.1805115,40.7480469 250.9038239,41.1132813 C248.6902771,39.4088516 247.063324,36.5257111 246.0229645,32.4638672 L246.0229645,39.4697266 L248.4633942,39.4697266 L248.4633942,40.6650391 L246.0229645,40.6650391 L246.0229645,44.1347656 L244.7944489,44.1347656 L244.7944489,40.6650391 L242.3540192,40.6650391 L242.3540192,39.4697266 L244.7944489,39.4697266 L244.7944489,32.4638672 L244.7529449,32.4638672 C243.7236481,36.2877579 242.0275116,39.2594376 239.664566,41.3789063 C239.4100037,41.0579376 239.1167145,40.7093048 238.7846832,40.3330078 C240.9207458,38.3795547 242.5200195,35.7565079 243.5825348,32.4638672 L239.6811676,32.4638672 L239.6811676,31.2685547 L244.7944489,31.2685547 L244.7944489,27.8818359 L246.0229645,27.8818359 L246.0229645,31.2685547 L251.3188629,31.2685547 L251.3188629,32.4638672 L247.0937653,32.4638672 C248.1507263,35.9059219 249.7472382,38.3795547 251.883316,39.8847656 Z M235.1655426,35.8505859 C236.7703552,33.5042267 237.9656677,30.8313751 238.7514801,27.8320313 L240.0131989,28.1972656 C239.5815582,29.6083984 239.094574,30.933754 238.5522614,32.1733398 L238.5522614,44.1181641 L237.3237457,44.1181641 L237.3237457,34.671875 C236.8256989,35.5738907 236.2944489,36.4205704 235.7299957,37.2119141 C235.5639801,36.7581329 235.375824,36.3043594 235.1655426,35.8505859 Z M263.6621094,34.9375 L264.9404297,35.4853516 C264.1159058,37.3613281 263.1336365,38.8859024 261.9936523,40.059082 C263.6538086,41.2875977 266.0084839,42.164711 269.0576172,42.6904297 C268.6481323,43.2438126 268.3161011,43.7086563 268.0615234,44.0849609 C265.1119995,43.3323517 262.7601013,42.2892227 261.0058594,40.9555664 C259.4840698,42.14534 257.0657654,43.227211 253.7509918,44.2011719 C253.5074921,43.813797 253.2308044,43.3876877 252.9209137,42.9228516 C256.0364685,42.1370392 258.3855896,41.1824493 259.9682617,40.059082 C258.8725586,38.9412384 257.9290466,37.4830704 257.1376953,35.6845703 L258.25,35.0537109 C258.9749451,36.6972656 259.8935547,38.0751953 261.0058594,39.1875 C262.0185547,38.180336 262.9039917,36.7636719 263.6621094,34.9375 Z M253.0371246,30.3056641 L260.8149414,30.3056641 C260.5548706,29.7633438 260.1813354,29.1048126 259.6943359,28.3300781 L260.9228516,27.7324219 C261.3987732,28.3964844 261.8193359,29.09375 262.1845703,29.8242188 L261.2548828,30.3056641 L268.9746094,30.3056641 L268.9746094,31.5341797 L253.0371246,31.5341797 Z M257.9511719,32.2978516 L259.0136719,33.1611328 C257.4642029,34.7880859 255.8538513,36.2434845 254.1826324,37.5273438 C253.9059296,37.1842422 253.5960388,36.8300781 253.2529449,36.4648438 C254.9241638,35.2805939 256.4902344,33.8916016 257.9511719,32.2978516 Z M263.9111328,32.2148438 C265.9365234,33.8085938 267.5192261,35.1422501 268.6591797,36.2158203 C268.3493042,36.5257111 268.0172729,36.8854141 267.6630859,37.2949219 C266.4124451,36.0110626 264.8574219,34.6054688 262.9980469,33.078125 Z M270.659668,41.7607422 L281.9072266,41.7607422 L282.1147461,38.9052734 L272.7514648,38.9052734 L272.7514648,37.7265625 L273.7973633,30.421875 L271.2573242,30.421875 L271.2573242,29.2265625 L285.8334961,29.2265625 L285.8334961,30.421875 L275.1918945,30.421875 L274.8349609,32.8623047 L283.940918,32.8623047 L283.3017578,41.7607422 L286.4643555,41.7607422 L286.4643555,42.9228516 L270.659668,42.9228516 Z M282.4633789,34.0576172 L274.6689453,34.0576172 L274.1459961,37.7099609 L282.1977539,37.7099609 Z M287.8339844,42.4912109 L295.4375,42.4912109 L295.4375,41.2626953 L289.1289063,41.2626953 L289.1289063,40.2832031 L295.4375,40.2832031 L295.4375,38.8886719 L290.9550781,38.8886719 L290.9550781,39.4863281 L289.7929688,39.4863281 L289.7929688,33.2441406 L295.4375,33.2441406 L295.4375,32.0488281 L287.9667969,32.0488281 L287.9667969,31.0195313 L295.4375,31.0195313 L295.4375,29.7163086 C293.4287109,29.7771759 291.3479919,29.8297501 289.1953125,29.8740234 C289.1289063,29.5198517 289.0514526,29.1435547 288.9628906,28.7451172 C294.5742188,28.6787109 299.1175232,28.5292969 302.5927734,28.296875 L302.7919922,29.4257813 C300.8219604,29.5198517 298.7688904,29.605629 296.6328125,29.6831055 L296.6328125,31.0195313 L304.1699219,31.0195313 L304.1699219,32.0488281 L296.6328125,32.0488281 L296.6328125,33.2441406 L302.3271484,33.2441406 L302.3271484,39.4697266 L301.1650391,39.4697266 L301.1650391,38.8886719 L296.6328125,38.8886719 L296.6328125,40.2832031 L302.9580078,40.2832031 L302.9580078,41.2626953 L296.6328125,41.2626953 L296.6328125,42.4912109 L304.1699219,42.4912109 L304.1699219,43.5205078 L287.8339844,43.5205078 Z M296.6328125,37.9257813 L301.1650391,37.9257813 L301.1650391,36.4980469 L296.6328125,36.4980469 Z M290.9550781,37.9257813 L295.4375,37.9257813 L295.4375,36.4980469 L290.9550781,36.4980469 Z M301.1650391,34.2070313 L296.6328125,34.2070313 L296.6328125,35.6181641 L301.1650391,35.6181641 Z M290.9550781,35.6181641 L295.4375,35.6181641 L295.4375,34.2070313 L290.9550781,34.2070313 Z M305.3735352,34.6220703 L313.0932617,34.6220703 L313.0932617,30.3388672 L306.7016602,30.3388672 L306.7016602,29.0273438 L320.4477539,29.0273438 L320.4477539,30.3388672 L314.487793,30.3388672 L314.487793,34.6220703 L321.7094727,34.6220703 L321.7094727,35.9335938 L314.487793,35.9335938 L314.487793,41.6279297 C314.487793,42.3805313 314.3494568,42.9228516 314.0727539,43.2548828 C313.7628784,43.6422501 313.1818237,43.8470001 312.3295898,43.8691406 C311.831543,43.869133 310.8963318,43.8636017 309.5239258,43.8525391 C309.4685974,43.3434219 309.3800659,42.8398361 309.2583008,42.3417969 C310.5089722,42.430336 311.3777771,42.4746017 311.8647461,42.4746094 C312.362793,42.4746017 312.6948242,42.3805313 312.8608398,42.1923828 C313.0158081,42.0374298 313.0932617,41.688797 313.0932617,41.1464844 L313.0932617,35.9335938 L305.3735352,35.9335938 Z M327.7607422,31.0361328 L334.8828125,31.0361328 L334.8828125,27.8652344 L336.2275391,27.8652344 L336.2275391,31.0361328 L339.0830078,31.0361328 L339.0830078,32.2480469 L336.2275391,32.2480469 L336.2275391,39.1376953 C336.2275391,40.5654297 335.5413513,41.2792969 334.1689453,41.2792969 C333.4495544,41.2792969 332.6083984,41.2737579 331.6455078,41.2626953 C331.5901794,40.8310547 331.5071716,40.3330078 331.3964844,39.7685547 C332.2819214,39.8570938 333.1064453,39.9013672 333.8701172,39.9013672 C334.5563354,39.9013672 334.8938904,39.5139923 334.8828125,38.7392578 L334.8828125,32.2480469 L327.7607422,32.2480469 Z M329.8027344,42.3417969 L334.2685547,42.4248047 L339.3154297,42.2587891 C339.1272888,42.7014923 338.9501953,43.1386719 338.7841797,43.5703125 L333.9199219,43.6367188 L329.6699219,43.5371094 C327.7662964,43.5149689 326.3662109,42.8841095 325.4697266,41.6445313 C325.1598511,41.8880157 324.5179138,42.5852814 323.5439453,43.7363281 L322.8466797,42.3417969 C323.7044373,41.5559845 324.3851013,40.9500275 324.8886719,40.5239258 L324.8886719,34.8212891 L322.9628906,34.8212891 L322.9628906,33.6259766 L326.1669922,33.6259766 L326.1669922,40.8227539 C326.9804688,41.8077774 328.1923828,42.3141251 329.8027344,42.3417969 Z M328.4248047,34.2236328 L329.4375,33.4765625 C330.6438904,35.0149689 331.5680542,36.2268829 332.2099609,37.1123047 L331.0644531,37.9589844 C330.1569214,36.5755157 329.2770386,35.3303986 328.4248047,34.2236328 Z M324.5566406,27.9316406 C325.2871094,28.7727814 326.0839844,29.8020782 326.9472656,31.0195313 C326.5045776,31.2851563 326.1116638,31.5507813 325.7685547,31.8164063 C325.0048828,30.6321564 324.2688904,29.5751953 323.5605469,28.6455078 Z M347.3588867,28.5957031 L355.5932617,28.5957031 L355.5932617,34.2900391 L354.331543,34.2900391 L354.331543,33.609375 L348.6206055,33.609375 L348.6206055,34.2900391 L347.3588867,34.2900391 Z M340.1704102,39.5527344 C341.2661133,37.9534454 342.1072388,36.0608673 342.6938477,33.875 L340.3696289,33.875 L340.3696289,32.7792969 L342.9594727,32.7792969 L342.9594727,30.1811523 C342.262207,30.2807617 341.5483398,30.3720703 340.8178711,30.4550781 C340.7293091,30.0787735 340.6130981,29.6969376 340.4692383,29.3095703 C342.3507385,29.1546173 344.2488403,28.8557892 346.1635742,28.4130859 L346.5288086,29.5751953 C345.7595825,29.7301407 344.9682617,29.8740234 344.1547852,30.0068359 L344.1547852,32.7792969 L346.4624023,32.7792969 L346.4624023,33.875 L344.1547852,33.875 L344.1547852,36.0664063 L344.8022461,35.5019531 C345.2449341,35.9557266 345.892395,36.6806641 346.7446289,37.6767578 L345.7485352,38.4902344 C345.1065979,37.6712189 344.5753479,37.0099258 344.1547852,36.5063477 L344.1547852,44.1845703 L342.9594727,44.1845703 L342.9594727,36.2324219 C342.3728638,38.1360626 341.6313171,39.7242813 340.7348633,40.9970703 C340.5577698,40.5211563 340.3696289,40.039711 340.1704102,39.5527344 Z M346.0307617,42.1757813 L350.7788086,42.1757813 L350.7788086,39.71875 L347.0102539,39.71875 L347.0102539,38.6064453 L350.7788086,38.6064453 L350.7788086,36.3486328 L346.6118164,36.3486328 L346.6118164,35.2363281 L356.2905273,35.2363281 L356.2905273,36.3486328 L352.1069336,36.3486328 L352.1069336,38.6064453 L355.8754883,38.6064453 L355.8754883,39.71875 L352.1069336,39.71875 L352.1069336,42.1757813 L356.8549805,42.1757813 L356.8549805,43.2880859 L346.0307617,43.2880859 Z M354.331543,29.7246094 L348.6206055,29.7246094 L348.6206055,32.4804688 L354.331543,32.4804688 Z M366.2265625,29.8574219 L373.5644531,29.8574219 L373.5644531,43.7197266 L372.2363281,43.7197266 L372.2363281,42.109375 L367.5546875,42.109375 L367.5546875,43.7197266 L366.2265625,43.7197266 Z M372.2363281,31.0859375 L367.5546875,31.0859375 L367.5546875,40.9140625 L372.2363281,40.9140625 Z M357.7597656,39.5693359 C359.0214539,37.8981094 360.0231018,36.0387344 360.7646484,33.9912109 L357.859375,33.9912109 L357.859375,32.8623047 L361.0302734,32.8623047 L361.0302734,30.2392578 C360.1669922,30.3720703 359.2926331,30.4938126 358.4072266,30.6044922 C358.3076172,30.2392578 358.1858521,29.8574219 358.0419922,29.4589844 C360.3440552,29.204422 362.5742188,28.828125 364.7324219,28.3300781 L365.1142578,29.4921875 C364.1956177,29.680336 363.2548828,29.8574219 362.2919922,30.0234375 L362.2919922,32.8623047 L365.3964844,32.8623047 L365.3964844,33.9912109 L362.2919922,33.9912109 L362.2919922,36.1328125 L362.8896484,35.5351563 C363.7639771,36.2877579 364.6217346,37.0846329 365.4628906,37.9257813 L364.5166016,38.8886719 C363.8525391,38.125 363.1109924,37.3447266 362.2919922,36.5478516 L362.2919922,44.2675781 L361.0302734,44.2675781 L361.0302734,36.2988281 C360.3772583,37.9368439 359.4973755,39.5029297 358.390625,40.9970703 C358.2135315,40.5654297 358.0032349,40.0895157 357.7597656,39.5693359 Z M375.5483398,41.6943359 L382.8198242,41.6943359 L382.8198242,30.6210938 L376.4946289,30.6210938 L376.4946289,29.2929688 L390.6391602,29.2929688 L390.6391602,30.6210938 L384.2807617,30.6210938 L384.2807617,41.6943359 L391.5688477,41.6943359 L391.5688477,42.9892578 L375.5483398,42.9892578 Z M392.8222656,39.2373047 L395.1132813,39.2373047 L395.1132813,28.5625 L407.0166016,28.5625 L407.0166016,39.2373047 L409.2744141,39.2373047 L409.2744141,40.4326172 L392.8222656,40.4326172 Z M396.3916016,39.2373047 L405.7382813,39.2373047 L405.7382813,37.6767578 L396.3916016,37.6767578 Z M405.7382813,29.7578125 L396.3916016,29.7578125 L396.3916016,31.2851563 L405.7382813,31.2851563 Z M396.3916016,33.9248047 L405.7382813,33.9248047 L405.7382813,32.3974609 L396.3916016,32.3974609 Z M396.3916016,36.5644531 L405.7382813,36.5644531 L405.7382813,35.0371094 L396.3916016,35.0371094 Z M402.4511719,41.9765625 L403.1484375,40.8808594 C405.0852661,41.4674454 407.0498047,42.1315079 409.0419922,42.8730469 L408.3945313,44.1845703 C406.8893127,43.5205078 404.9082031,42.7845001 402.4511719,41.9765625 Z M398.7324219,40.78125 L399.5292969,41.8769531 C397.5813599,42.7734299 395.6168518,43.5703125 393.6357422,44.2675781 C393.4697266,43.9023361 393.2649536,43.4872971 393.0214844,43.0224609 C394.7258911,42.5133438 396.6295471,41.7662735 398.7324219,40.78125 Z" style="fill:rgb(10,92,185);stroke:none" clip-path="url(#clip10)" />
<clipPath id="clip11"><path d="M195,26 L215,26 L215,46 L195,46 L195,26 Z" /></clipPath>
<path d="M202.5708313,38.34375 L202.5708313,45.0089989 L200.3208313,45.0089989 L200.3208313,33.7545013 L200.3208313,27 L213.8208313,33.1875 L202.5708313,38.34375 Z" style="fill:rgb(0,209,86);stroke:none" clip-path="url(#clip11)" />
<clipPath id="clip12"><path d="M182,66 L443,66 L443,110 L182,110 L182,66 Z" /></clipPath>
<path d="M189,68 C186.2385712,68 184,70.2385712 184,73 L184,102 C184,104.7614288 186.2385712,107 189,107 L435,107 C437.7614136,107 440,104.7614288 440,102 L440,73 C440,70.2385712 437.7614136,68 435,68 Z" style="fill:rgb(255,255,255);stroke:none" clip-path="url(#clip12)" />
<clipPath id="clip13"><path d="M182,66 L443,66 L443,110 L182,110 L182,66 Z" /></clipPath>
<path d="M189,68 C186.2385712,68 184,70.2385712 184,73 L184,102 C184,104.7614288 186.2385712,107 189,107 L435,107 C437.7614136,107 440,104.7614288 440,102 L440,73 C440,70.2385712 437.7614136,68 435,68 Z" style="fill:none;stroke:rgb(13,70,170)" clip-path="url(#clip13)" />
<clipPath id="clip14"><path d="M215,74 L430,74 L430,102 L215,102 L215,74 Z" /></clipPath>
<path d="M219.4148102,84.9204102 L226.7360992,84.9204102 L226.7360992,91.4780273 L220.7263336,91.4780273 L220.7263336,92.6567383 L219.4148102,92.6567383 Z M217.5720367,81.2016602 L233.9743805,81.2016602 L233.9743805,82.4633789 L231.2185211,82.4633789 L231.2185211,93.7026367 C231.2185211,95.1967773 230.493576,95.949379 229.0437164,95.9604492 C228.0033417,95.9604492 226.9906464,95.9549103 226.0056305,95.9438477 C225.9502869,95.4347305 225.8617401,94.9311523 225.7400055,94.4331055 C226.9906464,94.5216446 227.9424744,94.565918 228.5954742,94.565918 C229.4144745,94.565918 229.8239899,94.1232071 229.8239899,93.237793 L229.8239899,82.4633789 L217.5720367,82.4633789 Z M225.4245758,86.0991211 L220.7263336,86.0991211 L220.7263336,90.2993164 L225.4245758,90.2993164 Z M242.9641266,95.9272461 L242.9641266,90.6479492 L238.1330719,90.6479492 C237.9449158,92.9500275 237.2753143,94.8592072 236.1242828,96.3754883 C235.8365173,96.0102539 235.510025,95.628418 235.1447906,95.2299805 C235.8641815,94.2117462 236.3511658,93.08284 236.6057281,91.8432617 C236.8492126,90.6479492 236.9709625,88.9545898 236.9709625,86.7631836 L236.9709625,80.8364258 L250.501236,80.8364258 L250.501236,94.034668 C250.5012207,95.3517227 249.8759003,96.0102539 248.6252594,96.0102539 C247.8615875,96.0102539 247.00383,95.9936523 246.0520172,95.9604492 C245.9966736,95.5952148 245.9136658,95.1359024 245.8029938,94.5825195 C246.7658844,94.6489258 247.5461578,94.6821289 248.1438141,94.6821289 C248.8300018,94.6821289 249.173111,94.355629 249.173111,93.7026367 L249.173111,90.6479492 L244.2922516,90.6479492 L244.2922516,95.9272461 Z M244.2922516,89.4526367 L249.173111,89.4526367 L249.173111,86.3481445 L244.2922516,86.3481445 Z M249.173111,82.0649414 L244.2922516,82.0649414 L244.2922516,85.152832 L249.173111,85.152832 Z M238.2243805,89.4526367 L242.9641266,89.4526367 L242.9641266,86.3481445 L238.2990875,86.3481445 C238.3322754,87.4217072 238.307373,88.456543 238.2243805,89.4526367 Z M238.2990875,82.0649414 L238.2990875,85.152832 L242.9641266,85.152832 L242.9641266,82.0649414 Z M253.2155914,82.5961914 L254.8923492,82.5961914 C255.3018494,81.5890274 255.6394043,80.6704102 255.9050446,79.840332 L257.2995605,80.2387695 C256.9509277,81.0854492 256.6133728,81.871254 256.2868652,82.5961914 L259.6071777,82.5961914 L259.6071777,95.8110352 L258.2790527,95.8110352 L258.2790527,94.5161133 L254.5437164,94.5161133 L254.5437164,95.9272461 L253.2155914,95.9272461 Z M259.8562012,85.9995117 C260.8965759,84.3504181 261.7764587,82.2973633 262.4958496,79.840332 L263.8903809,80.1889648 C263.6081543,81.0245743 263.3204041,81.810379 263.0270996,82.5463867 L268.3728027,82.5463867 C268.2399902,88.2351837 268.1293335,91.8155899 268.0407715,93.2875977 C267.9633179,95.0252228 267.0502319,95.894043 265.3015137,95.894043 C264.2943726,95.894043 263.2705994,95.8608398 262.2302246,95.7944336 C262.1638184,95.2410431 262.0752869,94.7485352 261.9645996,94.3168945 L262.0144043,94.3168945 C263.1211853,94.4718399 264.1338806,94.5493164 265.0524902,94.5493164 C266.0596619,94.5493164 266.6019897,94.0180664 266.6794434,92.9555664 C266.8012085,91.3064728 266.88974,88.2517853 266.9450684,83.7915039 L262.4958496,83.7915039 C262.0144043,84.8595352 261.5163574,85.800293 261.001709,86.6137695 C260.7028809,86.4034805 260.3210449,86.1987305 259.8562012,85.9995117 Z M254.5437164,93.2709961 L258.2790527,93.2709961 L258.2790527,89.0708008 L254.5437164,89.0708008 Z M258.2790527,83.8413086 L254.5437164,83.8413086 L254.5437164,87.8754883 L258.2790527,87.8754883 Z M261.3171387,87.128418 L262.329834,86.3813477 C263.5583496,87.8312149 264.5378418,89.0874023 265.2683105,90.1499023 L264.0397949,91.0131836 C263.2539978,89.7293243 262.3464355,88.4344025 261.3171387,87.128418 Z M271.7844238,87.659668 L273.8098145,87.659668 L273.8098145,84.3061523 L274.9719238,84.3061523 L274.9719238,87.659668 L277.2463379,87.659668 L277.2463379,88.7553711 L274.9719238,88.7553711 L274.9719238,91.2705078 C275.8960876,91.1653595 276.7980957,91.0574493 277.6779785,90.9467773 C277.6226501,91.3673477 277.5839233,91.754715 277.5617676,92.1088867 C276.7427673,92.1974258 275.8794861,92.2970352 274.9719238,92.4077148 L274.9719238,96.159668 L273.8098145,96.159668 L273.8098145,92.5405273 C272.6753845,92.6844025 271.480072,92.8393555 270.223877,93.0053711 L270.0744629,91.7602539 C271.3583374,91.638504 272.6034546,91.5139923 273.8098145,91.3867188 L273.8098145,88.7553711 L270.5393066,88.7553711 L270.5393066,87.7094727 C271.1535645,86.1489258 271.6737671,84.737793 272.0998535,83.4760742 L270.3400879,83.4760742 L270.3400879,82.3803711 L272.4567871,82.3803711 C272.7666931,81.3842773 273.0074158,80.4988556 273.1789551,79.7241211 L274.5070801,79.9897461 C274.2470093,80.7976837 273.9841309,81.5945587 273.7185059,82.3803711 L277.1799316,82.3803711 L277.1799316,83.4760742 L273.3449707,83.4760742 C272.8414001,84.9148712 272.321228,86.3094025 271.7844238,87.659668 Z M280.5998535,84.5053711 L281.8947754,84.5053711 C281.8947754,85.6564102 281.8726501,86.7189102 281.8283691,87.6928711 C282.6972046,91.4780273 284.3352051,93.918457 286.7424316,95.0141602 C286.3882751,95.4015274 286.0396423,95.7833633 285.6965332,96.159668 C283.6822205,95.0418243 282.2406616,93.0524063 281.3718262,90.1914063 C280.7797241,92.6982422 279.1887207,94.7263947 276.598877,96.2758789 C276.3443298,95.9106445 276.0621033,95.5454102 275.7521973,95.1801758 C278.7736816,93.5200195 280.3729858,91.051918 280.5500488,87.7758789 C280.583252,87.0896759 280.5998535,85.9995117 280.5998535,84.5053711 Z M276.4494629,86.331543 C277.6447754,84.58284 278.6574707,82.3803711 279.4875488,79.7241211 L280.7990723,80.0727539 C280.4947205,80.9360352 280.1792908,81.755043 279.8527832,82.5297852 L286.3771973,82.5297852 L286.3771973,83.6420898 L284.6506348,86.8461914 L283.3557129,86.5639648 L284.8498535,83.675293 L279.3547363,83.675293 C278.7902832,84.9148712 278.1981812,86.0327148 277.5783691,87.0288086 C277.2574158,86.8185196 276.8811035,86.5860977 276.4494629,86.331543 Z M292.4616699,89.1538086 L298.2224121,89.1538086 L298.2224121,84.9536133 L295.0598145,84.9536133 C294.6115723,86.1433868 294.1218262,87.2058868 293.5905762,88.1411133 C293.2696228,87.8312149 292.9043884,87.5379181 292.494873,87.2612305 C293.5463257,85.4129181 294.3210449,83.348793 294.8190918,81.0688477 L296.1638184,81.4506836 C295.947998,82.2752228 295.7155762,83.0554962 295.4665527,83.7915039 L298.2224121,83.7915039 L298.2224121,79.9399414 L299.5505371,79.9399414 L299.5505371,83.7915039 L303.5183105,83.7915039 L303.5183105,84.9536133 L299.5505371,84.9536133 L299.5505371,89.1538086 L304.0661621,89.1538086 L304.0661621,90.315918 L299.5505371,90.315918 L299.5505371,96.1264648 L298.2224121,96.1264648 L298.2224121,90.315918 L292.4616699,90.315918 Z M287.4645996,88.1577148 C288.9919434,85.8999023 290.220459,83.1661758 291.1501465,79.956543 L292.5114746,80.3549805 C292.1019897,81.6443634 291.6592712,82.8535156 291.1833496,83.9824219 L291.1833496,96.1430664 L289.8718262,96.1430664 L289.8718262,86.7216797 C289.307373,87.7675781 288.7041931,88.7276993 288.0622559,89.6020508 C287.8962402,89.1261368 287.6970215,88.6446915 287.4645996,88.1577148 Z M305.0871582,94.5161133 L312.6906738,94.5161133 L312.6906738,93.2875977 L306.3820801,93.2875977 L306.3820801,92.3081055 L312.6906738,92.3081055 L312.6906738,90.9135742 L308.208252,90.9135742 L308.208252,91.5112305 L307.0461426,91.5112305 L307.0461426,85.269043 L312.6906738,85.269043 L312.6906738,84.0737305 L305.2199707,84.0737305 L305.2199707,83.0444336 L312.6906738,83.0444336 L312.6906738,81.7412109 C310.6818848,81.8020782 308.6011658,81.8546524 306.4484863,81.8989258 C306.3820801,81.544754 306.3046265,81.168457 306.2160645,80.7700195 C311.8273926,80.7036133 316.370697,80.5541992 319.8459473,80.3217773 L320.045166,81.4506836 C318.0751343,81.544754 316.0220642,81.6305313 313.8859863,81.7080078 L313.8859863,83.0444336 L321.4230957,83.0444336 L321.4230957,84.0737305 L313.8859863,84.0737305 L313.8859863,85.269043 L319.5803223,85.269043 L319.5803223,91.4946289 L318.4182129,91.4946289 L318.4182129,90.9135742 L313.8859863,90.9135742 L313.8859863,92.3081055 L320.2111816,92.3081055 L320.2111816,93.2875977 L313.8859863,93.2875977 L313.8859863,94.5161133 L321.4230957,94.5161133 L321.4230957,95.5454102 L305.0871582,95.5454102 Z M313.8859863,89.9506836 L318.4182129,89.9506836 L318.4182129,88.5229492 L313.8859863,88.5229492 Z M308.208252,89.9506836 L312.6906738,89.9506836 L312.6906738,88.5229492 L308.208252,88.5229492 Z M318.4182129,86.2319336 L313.8859863,86.2319336 L313.8859863,87.6430664 L318.4182129,87.6430664 Z M308.208252,87.6430664 L312.6906738,87.6430664 L312.6906738,86.2319336 L308.208252,86.2319336 Z M322.626709,86.6469727 L330.3464355,86.6469727 L330.3464355,82.3637695 L323.954834,82.3637695 L323.954834,81.0522461 L337.7009277,81.0522461 L337.7009277,82.3637695 L331.7409668,82.3637695 L331.7409668,86.6469727 L338.9626465,86.6469727 L338.9626465,87.9584961 L331.7409668,87.9584961 L331.7409668,93.652832 C331.7409668,94.4054337 331.6026306,94.9477539 331.3259277,95.2797852 C331.0160522,95.6671524 330.4349976,95.8719025 329.5827637,95.894043 C329.0847168,95.894043 328.1495056,95.888504 326.7770996,95.8774414 C326.7217712,95.3683243 326.6332397,94.8647461 326.5114746,94.3666992 C327.762146,94.4552383 328.6309509,94.4995117 329.1179199,94.4995117 C329.6159668,94.4995117 329.947998,94.4054337 330.1140137,94.2172852 C330.2689819,94.0623322 330.3464355,93.7136993 330.3464355,93.1713867 L330.3464355,87.9584961 L322.626709,87.9584961 Z M340.5314941,88.7719727 L356.1369629,88.7719727 L356.1369629,89.9506836 L350.7746582,89.9506836 L350.7746582,93.4702148 C350.7746582,94.2006836 351.1343384,94.565918 351.8537598,94.565918 L353.6135254,94.565918 C354.3661194,94.565918 354.7866821,94.3113556 354.8752441,93.8022461 C354.9637756,93.293129 355.0246582,92.5681915 355.0578613,91.6274414 C355.4562988,91.7823868 355.9432678,91.9484024 356.5187988,92.1254883 C356.4413147,93.0330353 356.3417053,93.7745743 356.2199707,94.3500977 C356.0650024,95.301918 355.3954163,95.777832 354.2111816,95.777832 L351.505127,95.777832 C350.1216431,95.777832 349.4299316,95.0694962 349.4299316,93.652832 L349.4299316,89.9506836 L346.4499512,89.9506836 C346.4222717,93.0717773 344.5933228,95.152504 340.9631348,96.1928711 C340.7417603,95.8276367 340.4650879,95.418129 340.1330566,94.9643555 C343.4090881,94.1674805 345.0747681,92.496254 345.130127,89.9506836 L340.5314941,89.9506836 Z M340.6643066,81.9321289 L347.7697754,81.9321289 C347.5539246,81.4838867 347.2772522,80.958168 346.9396973,80.3549805 L348.2346191,79.7573242 C348.6717834,80.598465 349.0259399,81.3234024 349.2971191,81.9321289 L355.9377441,81.9321289 L355.9377441,84.9868164 L354.576416,84.9868164 L354.576416,83.1108398 L342.0256348,83.1108398 L342.0256348,84.9868164 L340.6643066,84.9868164 Z M342.5900879,85.3354492 L354.2775879,85.3354492 L354.2775879,86.4975586 L342.5900879,86.4975586 Z M359.8972168,88.4067383 L371.7175293,88.4067383 L371.7175293,96.1430664 L370.5222168,96.1430664 L370.5222168,95.4125977 L361.0925293,95.4125977 L361.0925293,96.1430664 L359.8972168,96.1430664 Z M362.2712402,79.6245117 L363.5163574,80.1557617 C363.2728577,80.5597305 363.0100098,80.958168 362.7277832,81.3510742 L371.7175293,81.3510742 L371.7175293,82.4633789 C370.6937561,83.6974258 369.3158264,84.7737579 367.5837402,85.6923828 C369.4154358,86.3066406 371.6012878,86.6801758 374.1413574,86.8129883 C373.7760925,87.333168 373.466217,87.7980118 373.2116699,88.2075195 C370.350647,87.864418 367.9517212,87.2750626 366.0148926,86.4394531 C363.8179321,87.3802032 361.1644592,88.1189728 358.0544434,88.6557617 C357.8552246,88.2683868 357.6227722,87.8699493 357.3571777,87.4604492 C360.1019592,87.0620117 362.4925842,86.4726563 364.5290527,85.6923828 C363.223053,84.9342422 362.1965332,84.0322266 361.4494629,82.9863281 C360.6249084,83.9326172 359.6924438,84.8429337 358.6520996,85.7172852 C358.353241,85.3852539 358.0488892,85.0808868 357.7390137,84.8041992 C359.7201233,83.2104492 361.2308655,81.4838867 362.2712402,79.6245117 Z M369.9411621,82.4467773 L362.4953613,82.4467773 C363.3862915,83.5092773 364.5567017,84.3836212 366.0065918,85.0698242 C367.5671387,84.3282852 368.8786621,83.4539337 369.9411621,82.4467773 Z M361.0925293,91.4448242 L365.2097168,91.4448242 L365.2097168,89.402832 L361.0925293,89.402832 Z M370.5222168,89.402832 L366.4050293,89.402832 L366.4050293,91.4448242 L370.5222168,91.4448242 Z M366.4050293,94.4165039 L370.5222168,94.4165039 L370.5222168,92.3911133 L366.4050293,92.3911133 Z M361.0925293,94.4165039 L365.2097168,94.4165039 L365.2097168,92.3911133 L361.0925293,92.3911133 Z M375.7600098,82.5961914 L377.4367676,82.5961914 C377.8462524,81.5890274 378.1838074,80.6704102 378.4494629,79.840332 L379.8439941,80.2387695 C379.4953613,81.0854492 379.1577759,81.871254 378.8312988,82.5961914 L382.1516113,82.5961914 L382.1516113,95.8110352 L380.8234863,95.8110352 L380.8234863,94.5161133 L377.0881348,94.5161133 L377.0881348,95.9272461 L375.7600098,95.9272461 Z M382.4006348,85.9995117 C383.440979,84.3504181 384.3208618,82.2973633 385.0402832,79.840332 L386.4348145,80.1889648 C386.1525879,81.0245743 385.8648071,81.810379 385.5715332,82.5463867 L390.9172363,82.5463867 C390.7844238,88.2351837 390.6737366,91.8155899 390.5852051,93.2875977 C390.5077209,95.0252228 389.594635,95.894043 387.8459473,95.894043 C386.8387756,95.894043 385.8150024,95.8608398 384.7746582,95.7944336 C384.708252,95.2410431 384.6196899,94.7485352 384.5090332,94.3168945 L384.5588379,94.3168945 C385.6655884,94.4718399 386.6782837,94.5493164 387.5969238,94.5493164 C388.6040649,94.5493164 389.1463928,94.0180664 389.223877,92.9555664 C389.3456116,91.3064728 389.4341431,88.2517853 389.489502,83.7915039 L385.0402832,83.7915039 C384.5588379,84.8595352 384.060791,85.800293 383.5461426,86.6137695 C383.2473145,86.4034805 382.8654785,86.1987305 382.4006348,85.9995117 Z M377.0881348,93.2709961 L380.8234863,93.2709961 L380.8234863,89.0708008 L377.0881348,89.0708008 Z M380.8234863,83.8413086 L377.0881348,83.8413086 L377.0881348,87.8754883 L380.8234863,87.8754883 Z M383.8615723,87.128418 L384.8742676,86.3813477 C386.1027832,87.8312149 387.0822754,89.0874023 387.8127441,90.1499023 L386.5842285,91.0131836 C385.7984009,89.7293243 384.8908691,88.4344025 383.8615723,87.128418 Z M392.8347168,82.7124023 L400.8034668,82.7124023 C400.2445374,81.6499023 399.8073425,80.8751602 399.4919434,80.3881836 L400.7702637,79.7905273 C401.0801392,80.2664337 401.5449829,81.0411758 402.1647949,82.1147461 L400.9694824,82.7124023 L408.7722168,82.7124023 L408.7722168,83.940918 L405.7092285,83.940918 C405.1170959,87.1007462 403.8442993,89.6407852 401.8908691,91.5610352 C403.362854,92.6345978 405.7009277,93.5974884 408.9050293,94.449707 C408.3959045,95.0252228 408.0085449,95.5066681 407.7429199,95.894043 C404.6218262,94.8149414 402.3169556,93.6860352 400.8283691,92.5073242 C399.3342285,93.6694336 396.9463501,94.8426056 393.6647949,96.0268555 C393.3770142,95.6394806 393.0449829,95.20784 392.6687012,94.7319336 C395.8340454,93.7801056 398.2163696,92.7203751 399.8156738,91.5527344 C397.7958069,89.3945313 396.5119629,86.857254 395.9641113,83.940918 L392.8347168,83.940918 Z M404.2897949,83.940918 L397.2922363,83.940918 C397.7902832,86.6635742 398.9800415,88.9130859 400.8615723,90.6894531 C402.6600647,89.0182266 403.8027954,86.7687149 404.2897949,83.940918 Z M415.7365723,94.0678711 L424.6350098,94.0678711 L424.6350098,91.1459961 L416.4504395,91.1459961 L416.4504395,90.0004883 L424.6350098,90.0004883 L424.6350098,87.2114258 L416.1682129,87.2114258 L416.1682129,86.0327148 L420.4016113,86.0327148 L420.4016113,80.0063477 L421.6633301,80.0063477 L421.6633301,86.0327148 L425.8967285,86.0327148 L425.8967285,96.1762695 L424.6350098,96.1762695 L424.6350098,95.246582 L415.7365723,95.246582 Z M409.8928223,90.5151367 C411.0549316,88.7996368 411.9403381,86.7908478 412.5490723,84.4887695 L410.0588379,84.4887695 L410.0588379,83.3598633 L412.5822754,83.3598633 L412.5822754,80.0229492 L413.8273926,80.0229492 L413.8273926,83.3598633 L416.1516113,83.3598633 L416.1516113,84.4887695 L413.8273926,84.4887695 L413.8273926,86.9956055 L414.3586426,86.480957 C415.2772522,87.3995743 416.0741272,88.2185822 416.7492676,88.9379883 L415.7531738,89.8344727 C415.1555176,89.0929337 414.5135803,88.3513947 413.8273926,87.6098633 L413.8273926,96.1264648 L412.5822754,96.1264648 L412.5822754,87.6098633 C411.9846191,89.3474884 411.2817993,90.7973633 410.473877,91.9594727 C410.2967834,91.4946289 410.1030884,91.0131836 409.8928223,90.5151367 Z M422.9748535,84.4057617 C423.7384949,83.3543243 424.4855652,82.1590118 425.2160645,80.8198242 L426.4279785,81.5336914 C425.5868225,82.8950195 424.7843933,84.1069336 424.020752,85.1694336 Z M415.8361816,81.5004883 L416.8654785,80.8530273 C417.6955566,81.9929962 418.4979553,83.1606445 419.2727051,84.355957 L418.0939941,85.1196289 C417.3856506,83.880043 416.6330566,82.6736603 415.8361816,81.5004883 Z" style="fill:rgb(10,92,185);stroke:none" clip-path="url(#clip14)" />
<clipPath id="clip15"><path d="M195,78 L215,78 L215,98 L195,98 L195,78 Z" /></clipPath>
<path d="M202.5708313,90.34375 L202.5708313,97.0090027 L200.3208313,97.0090027 L200.3208313,85.7545013 L200.3208313,79 L213.8208313,85.1875 L202.5708313,90.34375 Z" style="fill:rgb(0,209,86);stroke:none" clip-path="url(#clip15)" />
<clipPath id="clip16"><path d="M182,118 L408,118 L408,162 L182,162 L182,118 Z" /></clipPath>
<path d="M189,120 C186.2385712,120 184,122.2385712 184,125 L184,154 C184,156.7614288 186.2385712,159 189,159 L400,159 C402.7614136,159 405,156.7614288 405,154 L405,125 C405,122.2385712 402.7614136,120 400,120 Z" style="fill:rgb(255,255,255);stroke:none" clip-path="url(#clip16)" />
<clipPath id="clip17"><path d="M182,118 L408,118 L408,162 L182,162 L182,118 Z" /></clipPath>
<path d="M189,120 C186.2385712,120 184,122.2385712 184,125 L184,154 C184,156.7614288 186.2385712,159 189,159 L400,159 C402.7614136,159 405,156.7614288 405,154 L405,125 C405,122.2385712 402.7614136,120 400,120 Z" style="fill:none;stroke:rgb(13,70,170)" clip-path="url(#clip17)" />
<clipPath id="clip18"><path d="M215,126 L395,126 L395,154 L215,154 L215,126 Z" /></clipPath>
<path d="M223.4470367,134.9697266 L224.6589508,135.484375 C224.4043884,135.7998047 224.149826,136.1041718 223.8952789,136.3974609 L231.5485992,136.3974609 L231.5485992,137.4433594 C230.6299744,138.5113983 229.4125214,139.432785 227.8962555,140.2075195 C229.73349,140.7775116 231.9747009,141.0680389 234.6198883,141.0791016 C234.3210602,141.5107422 234.0443573,141.9589844 233.7898102,142.4238281 C230.8291931,142.1969452 228.3721619,141.6795197 226.4187164,140.871582 C224.2715759,141.7348633 221.6429901,142.3629608 218.5329742,142.7558594 C218.3448181,142.3463593 218.1123962,141.9479218 217.8357086,141.5605469 C220.6302948,141.2783203 223.0043182,140.8134766 224.9577789,140.1660156 C223.8952789,139.5572968 223.0347595,138.8323517 222.376236,137.9912109 C221.5461426,138.7880859 220.6856384,139.5019531 219.794693,140.1328125 C219.5511932,139.845047 219.263443,139.5462189 218.9314117,139.2363281 C220.8903809,137.8971405 222.3955994,136.4749298 223.4470367,134.9697266 Z M220.8903961,142.8554688 L231.7146149,142.8554688 L231.7146149,148.1347656 L230.4860992,148.1347656 L230.4860992,147.4375 L222.1189117,147.4375 L222.1189117,148.1347656 L220.8903961,148.1347656 Z M218.8982086,133.8076172 L226.0617828,133.8076172 C225.7629395,133.3483124 225.4004822,132.8613281 224.9743805,132.3466797 L226.1032867,131.6328125 C226.54599,132.141922 227.0052948,132.7063751 227.4812164,133.3261719 L226.7175446,133.8076172 L233.7400055,133.8076172 L233.7400055,136.9121094 L232.5114899,136.9121094 L232.5114899,134.9033203 L220.1267242,134.9033203 L220.1267242,136.8955078 L218.8982086,136.8955078 Z M230.4860992,143.9179688 L222.1189117,143.9179688 L222.1189117,146.375 L230.4860992,146.375 Z M229.7888336,137.4599609 L223.438736,137.4599609 C224.1858063,138.3453827 225.1680603,139.0675507 226.3855133,139.6264648 C227.7966461,139.0232697 228.931076,138.3011017 229.7888336,137.4599609 Z M242.5139313,132.3798828 L243.7092438,131.6660156 C244.2404938,132.296875 244.7662048,132.983078 245.2863922,133.7246094 L244.4729156,134.2392578 L250.6652985,134.2392578 L250.6652985,141.59375 L249.3371735,141.59375 L249.3371735,140.7304688 L238.8532867,140.7304688 C238.7038727,143.9179688 237.8820801,146.4635315 236.3879547,148.3671875 C236.0891266,148.0019531 235.768158,147.6367188 235.4250641,147.2714844 C236.8417206,145.5449219 237.5500641,142.9550781 237.5500641,139.5019531 L237.5500641,134.2392578 L243.8835602,134.2392578 C243.4795837,133.6194611 243.0230408,132.9996796 242.5139313,132.3798828 Z M238.8781891,135.4345703 L238.8781891,139.5351563 L249.3371735,139.5351563 L249.3371735,135.4345703 Z M258.642334,135.2851563 L261.5227051,135.2851563 C261.5614624,134.15625 261.5808105,133.0439453 261.5808105,131.9482422 L262.8757324,131.9482422 C262.8646851,132.9775391 262.8397827,134.0898438 262.8010254,135.2851563 L266.8435059,135.2851563 C266.7328491,139.3691406 266.6055603,142.7779999 266.4616699,145.5117188 C266.3952637,147.0390625 265.6260681,147.8027344 264.1540527,147.8027344 C263.7888184,147.8027344 263.1801147,147.7916565 262.3278809,147.7695313 C262.2504272,147.2604065 262.1563416,146.7789612 262.0456543,146.3251953 C262.7650757,146.4248047 263.3959351,146.4746094 263.9382324,146.4746094 C264.7351074,146.485672 265.1557007,146.0595703 265.1999512,145.1962891 C265.3327637,142.5511017 265.4379272,139.6790314 265.5153809,136.5800781 L262.7595215,136.5800781 C262.6986694,139.0537109 262.5049744,141.0126953 262.1784668,142.4570313 C261.6140137,144.6484375 260.4519043,146.5078125 258.6921387,148.0351563 C258.4154663,147.7252502 258.0944824,147.3987579 257.729248,147.0556641 C259.3119507,145.6611328 260.3688965,144.0120392 260.9001465,142.1083984 C261.2432556,140.8134766 261.4396973,138.9707031 261.489502,136.5800781 L258.642334,136.5800781 Z M253.0310211,136.7128906 L254.8405914,136.7128906 L254.8405914,131.9648438 L256.1188965,131.9648438 L256.1188965,136.7128906 L257.729248,136.7128906 L257.729248,137.9248047 L256.1188965,137.9248047 L256.1188965,148.1015625 L254.8405914,148.1015625 L254.8405914,137.9248047 L253.0310211,137.9248047 Z M259.1403809,138.2236328 L260.2526855,138.6386719 C259.6993103,140.0996094 259.057373,141.6601563 258.3269043,143.3203125 C257.9838257,143.1321564 257.6130371,142.9606171 257.2145996,142.8056641 C257.934021,141.4111328 258.5759277,139.8837891 259.1403809,138.2236328 Z M266.9431152,138.5556641 L268.0554199,138.2070313 C268.6088257,139.7565155 269.1123962,141.2119141 269.5661621,142.5732422 L268.354248,142.9882813 C267.8894043,141.3391876 267.4190369,139.8616486 266.9431152,138.5556641 Z M275.0861816,138.5722656 C276.558197,136.5579376 277.6428223,134.311203 278.3400879,131.8320313 L279.701416,132.0810547 C279.4413452,132.9332733 279.1480408,133.7578125 278.8215332,134.5546875 L287.0061035,134.5546875 L287.0061035,135.7167969 L280.9631348,135.7167969 L280.9631348,138.6220703 L286.342041,138.6220703 L286.342041,139.7841797 L280.9631348,139.7841797 L280.9631348,142.8056641 L286.5578613,142.8056641 L286.5578613,143.9677734 L280.9631348,143.9677734 L280.9631348,148.1513672 L279.6682129,148.1513672 L279.6682129,135.7167969 L278.3151855,135.7167969 C277.6898804,137.0670624 276.9621582,138.3343048 276.1320801,139.5185547 C275.8222046,139.2197266 275.4735718,138.9042969 275.0861816,138.5722656 Z M270.4709473,140.0996094 C272.0314941,137.7864532 273.265564,135.0471954 274.1730957,131.8818359 L275.5344238,132.2802734 C275.1083374,133.5862579 274.654541,134.8120117 274.1730957,135.9575195 L274.1730957,148.1513672 L272.8781738,148.1513672 L272.8781738,138.6635742 C272.3192749,139.7094727 271.7271423,140.6640625 271.1018066,141.5273438 C270.935791,141.1067657 270.7255249,140.6308594 270.4709473,140.0996094 Z M288.0935059,146.5078125 L295.6970215,146.5078125 L295.6970215,145.2792969 L289.3884277,145.2792969 L289.3884277,144.2998047 L295.6970215,144.2998047 L295.6970215,142.9052734 L291.2145996,142.9052734 L291.2145996,143.5029297 L290.0524902,143.5029297 L290.0524902,137.2607422 L295.6970215,137.2607422 L295.6970215,136.0654297 L288.2263184,136.0654297 L288.2263184,135.0361328 L295.6970215,135.0361328 L295.6970215,133.7329102 C293.6882324,133.7937775 291.6075134,133.8463593 289.454834,133.890625 C289.3884277,133.5364532 289.3109741,133.1601563 289.2224121,132.7617188 C294.8337402,132.6953125 299.3770447,132.5458984 302.8522949,132.3134766 L303.0515137,133.4423828 C301.0814819,133.5364532 299.0284119,133.6222382 296.892334,133.699707 L296.892334,135.0361328 L304.4294434,135.0361328 L304.4294434,136.0654297 L296.892334,136.0654297 L296.892334,137.2607422 L302.5866699,137.2607422 L302.5866699,143.4863281 L301.4245605,143.4863281 L301.4245605,142.9052734 L296.892334,142.9052734 L296.892334,144.2998047 L303.2175293,144.2998047 L303.2175293,145.2792969 L296.892334,145.2792969 L296.892334,146.5078125 L304.4294434,146.5078125 L304.4294434,147.5371094 L288.0935059,147.5371094 Z M296.892334,141.9423828 L301.4245605,141.9423828 L301.4245605,140.5146484 L296.892334,140.5146484 Z M291.2145996,141.9423828 L295.6970215,141.9423828 L295.6970215,140.5146484 L291.2145996,140.5146484 Z M301.4245605,138.2236328 L296.892334,138.2236328 L296.892334,139.6347656 L301.4245605,139.6347656 Z M291.2145996,139.6347656 L295.6970215,139.6347656 L295.6970215,138.2236328 L291.2145996,138.2236328 Z M305.6330566,138.6386719 L313.3527832,138.6386719 L313.3527832,134.3554688 L306.9611816,134.3554688 L306.9611816,133.0439453 L320.7072754,133.0439453 L320.7072754,134.3554688 L314.7473145,134.3554688 L314.7473145,138.6386719 L321.9689941,138.6386719 L321.9689941,139.9501953 L314.7473145,139.9501953 L314.7473145,145.6445313 C314.7473145,146.3971252 314.6089783,146.9394531 314.3322754,147.2714844 C314.0223999,147.658844 313.4413452,147.8636017 312.5891113,147.8857422 C312.0910645,147.8857422 311.1558533,147.8802032 309.7834473,147.8691406 C309.7281189,147.3600159 309.6395874,146.8564453 309.5178223,146.3583984 C310.7684937,146.4469299 311.6372986,146.4912109 312.1242676,146.4912109 C312.6223145,146.4912109 312.9543457,146.3971252 313.1203613,146.2089844 C313.2753296,146.0540314 313.3527832,145.7053986 313.3527832,145.1630859 L313.3527832,139.9501953 L305.6330566,139.9501953 Z M325.5300293,140.8964844 L337.1013184,140.8964844 L337.1013184,148.2675781 L335.7731934,148.2675781 L335.7731934,147.1552734 L326.8581543,147.1552734 L326.8581543,148.3007813 L325.5300293,148.3007813 Z M332.635498,132.0644531 L332.2370605,132.5458984 C334.0853882,134.9475861 336.5368652,136.7571564 339.5915527,137.9746094 C339.2484436,138.4615936 338.9551697,138.9042969 338.7116699,139.3027344 C337.8151855,138.8710938 336.9629822,138.3841095 336.1550293,137.8417969 L336.1550293,138.7880859 L326.4431152,138.7880859 L326.4431152,137.9580078 C325.6351929,138.4892578 324.7719116,139.0094452 323.8532715,139.5185547 C323.6319275,139.1422577 323.3552246,138.7272186 323.0231934,138.2734375 C326.4431152,136.5579376 329.0274353,134.4882813 330.776123,132.0644531 Z M335.7731934,142.1083984 L326.8581543,142.1083984 L326.8581543,145.9765625 L335.7731934,145.9765625 Z M331.3571777,133.5087891 C330.2282715,134.9586639 328.7507324,136.3255157 326.9245605,137.609375 L335.8063965,137.609375 C334.124115,136.4583282 332.6410522,135.0914764 331.3571777,133.5087891 Z M343.0031738,148.0185547 L341.7248535,148.0185547 L341.7248535,132.7949219 L355.8693848,132.7949219 L355.8693848,146.0927734 C355.8693848,147.3212891 355.2219238,147.9355469 353.927002,147.9355469 C353.1190491,147.9355469 352.2004395,147.9134064 351.1711426,147.8691406 C351.1157837,147.4817657 351.0383301,147.0390625 350.9387207,146.5410156 C352.0344238,146.640625 352.9419556,146.6904297 353.661377,146.6904297 C354.2811584,146.6904297 354.5910645,146.3805237 354.5910645,145.7607422 L354.5910645,134.0234375 L343.0031738,134.0234375 Z M345.2941895,139.1533203 L352.2834473,139.1533203 L352.2834473,144.3828125 L346.5227051,144.3828125 L346.5227051,145.2460938 L345.2941895,145.2460938 Z M351.0549316,140.3486328 L346.5227051,140.3486328 L346.5227051,143.1875 L351.0549316,143.1875 Z M343.9328613,136.0488281 L353.661377,136.0488281 L353.661377,137.2441406 L343.9328613,137.2441406 Z M367.9802246,138.7548828 L369.2419434,138.7548828 C369.2419434,139.7177734 369.1921387,140.5948944 369.0925293,141.3862305 C370.0332642,144.3966522 371.8649902,146.2421875 374.5876465,146.9228516 C374.2224121,147.3102112 373.8959045,147.7363281 373.6081543,148.2011719 C371.2728577,147.2991486 369.6265259,145.7109375 368.6691895,143.4365234 C368.0106506,145.7607422 366.2204285,147.3655548 363.298584,148.2509766 C363.0218811,147.8082581 362.7064514,147.3876953 362.3522949,146.9892578 C364.5436707,146.4580078 366.0322876,145.5947266 366.8181152,144.3994141 C367.5928345,143.3369141 367.9802246,141.4553986 367.9802246,138.7548828 Z M368.1130371,131.8818359 L369.3747559,131.8818359 C369.3747559,133.3925781 369.2363892,134.6266327 368.9597168,135.5839844 C370.6143188,136.4694061 372.2966003,137.4322968 374.0065918,138.4726563 L373.1599121,139.6679688 C371.6823425,138.6497345 370.1383972,137.6536407 368.5280762,136.6796875 C367.7422485,138.0631561 366.1872559,139.1422577 363.8630371,139.9169922 C363.5420532,139.3857422 363.2266235,138.9651642 362.916748,138.6552734 C365.0085449,138.0908203 366.397522,137.3492889 367.0837402,136.4306641 C367.769928,135.5452423 368.1130371,134.0289764 368.1130371,131.8818359 Z M363.0993652,143.4033203 C363.1546936,143.9345703 363.2321777,144.4381561 363.3317871,144.9140625 C362.457428,145.6777344 361.765686,146.3085938 361.2565918,146.8066406 C361.013092,147.0501251 360.7640686,147.3157501 360.5095215,147.6035156 L359.5632324,146.5742188 C359.906311,146.1979065 360.0778809,145.6777344 360.0778809,145.0136719 L360.0778809,138.5888672 L358.0524902,138.5888672 L358.0524902,137.3769531 L361.3562012,137.3769531 L361.3562012,145.046875 C361.8542175,144.5930939 362.4353027,144.0452423 363.0993652,143.4033203 Z M360.260498,132.1474609 C361.2233582,133.2210236 362.0479126,134.1839142 362.7341309,135.0361328 L361.5388184,135.9160156 C360.598053,134.5878906 359.8233032,133.5862579 359.2145996,132.9111328 Z M370.5368652,142.8554688 C371.2894592,142.2024689 372.0697327,141.3447266 372.8776855,140.2822266 L373.9401855,141.1289063 C373.2429199,141.970047 372.4072876,142.8499298 371.4333496,143.7685547 Z M370.5534668,134.8369141 C371.3392639,134.2724609 372.1527405,133.5364532 372.9938965,132.6289063 L373.9899902,133.4921875 C373.1931152,134.3001251 372.329834,135.0693359 371.4001465,135.7998047 Z M363.3151855,141.0126953 L364.3942871,140.3652344 C364.9919128,141.1842499 365.5951233,142.0917969 366.2038574,143.0878906 L365.041748,143.7851563 C364.4994202,142.7890625 363.9238892,141.8649139 363.3151855,141.0126953 Z M363.2155762,133.3261719 L364.2116699,132.6455078 C364.8867798,133.4423828 365.5453186,134.2946014 366.1872559,135.2021484 L365.0749512,135.9492188 C364.4883423,135.0527344 363.8685608,134.1783905 363.2155762,133.3261719 Z M375.857666,141.1787109 L379.6345215,141.1787109 C379.7728577,140.4371796 379.8503418,139.6458282 379.8669434,138.8046875 L376.2062988,138.8046875 L376.2062988,137.6425781 L379.9084473,137.6425781 C379.9637756,136.1816406 379.9914551,134.3001251 379.9914551,131.9980469 L381.286377,131.9980469 C381.2752991,134.2005157 381.2531738,136.0820313 381.2199707,137.6425781 L384.8723145,137.6425781 L384.8723145,138.8046875 L381.1950684,138.8046875 C381.1839905,139.6403046 381.1203613,140.4316406 381.0041504,141.1787109 L385.154541,141.1787109 L385.154541,142.3408203 L380.7717285,142.3408203 C380.1795959,144.8089142 378.9787292,146.7900391 377.1691895,148.2841797 C376.8482056,147.8968048 376.5106506,147.5426331 376.1564941,147.2216797 C377.717041,145.9710236 378.7850647,144.3440704 379.3605957,142.3408203 L375.857666,142.3408203 Z M389.8693848,131.9316406 L391.1643066,131.9316406 L391.1643066,145.8271484 C391.1642761,147.2548828 390.4614868,147.96875 389.0559082,147.96875 C388.5025024,147.96875 387.7111511,147.9576721 386.6818848,147.9355469 C386.6265259,147.4485626 386.5490723,146.9781799 386.4494629,146.5244141 C387.3016663,146.6129456 388.0376587,146.6572266 388.6574707,146.6572266 C389.4653931,146.6572266 389.8693542,146.2255859 389.8693848,145.3623047 Z M386.333252,133.7910156 L387.6115723,133.7910156 L387.6115723,143.9511719 L386.333252,143.9511719 Z M382.0334473,136.0654297 C382.8745728,135.0361328 383.5718384,134.0289764 384.1252441,133.0439453 L385.3039551,133.7744141 C384.5070801,134.9475861 383.7544556,135.9713593 383.0461426,136.8457031 Z M376.0402832,133.7412109 L377.0695801,133.0771484 C377.8110962,134.0289764 378.5083618,134.9973907 379.161377,135.9824219 L378.0158691,136.7626953 C377.2964478,135.5452423 376.6379395,134.5380859 376.0402832,133.7412109 Z" style="fill:rgb(10,92,185);stroke:none" clip-path="url(#clip18)" />
<clipPath id="clip19"><path d="M195,130 L215,130 L215,150 L195,150 L195,130 Z" /></clipPath>
<path d="M202.5708313,142.34375 L202.5708313,149.0090027 L200.3208313,149.0090027 L200.3208313,137.7545013 L200.3208313,131 L213.8208313,137.1875 L202.5708313,142.34375 Z" style="fill:rgb(0,209,86);stroke:none" clip-path="url(#clip19)" />
<clipPath id="clip20"><path d="M182,170 L407,170 L407,214 L182,214 L182,170 Z" /></clipPath>
<path d="M189,172 C186.2385712,172 184,174.2385712 184,177 L184,206 C184,208.7614288 186.2385712,211 189,211 L399,211 C401.7614136,211 404,208.7614288 404,206 L404,177 C404,174.2385712 401.7614136,172 399,172 Z" style="fill:rgb(255,255,255);stroke:none" clip-path="url(#clip20)" />
<clipPath id="clip21"><path d="M182,170 L407,170 L407,214 L182,214 L182,170 Z" /></clipPath>
<path d="M189,172 C186.2385712,172 184,174.2385712 184,177 L184,206 C184,208.7614288 186.2385712,211 189,211 L399,211 C401.7614136,211 404,208.7614288 404,206 L404,177 C404,174.2385712 401.7614136,172 399,172 Z" style="fill:none;stroke:rgb(13,70,170)" clip-path="url(#clip21)" />
<clipPath id="clip22"><path d="M215,178 L394,178 L394,206 L215,206 L215,178 Z" /></clipPath>
<path d="M223.2541656,186.1977539 L226.1760406,186.1977539 C226.4859314,185.4119415 226.762619,184.637207 227.0061188,183.8735352 L228.3508453,184.1889648 C228.0630798,184.8862305 227.7753143,185.5558167 227.4875641,186.1977539 L232.4182281,186.1977539 L232.4182281,198.1508789 C232.4182281,199.4015198 231.8426971,200.0323792 230.6916656,200.043457 C230.1161346,200.0545197 229.424408,200.0545197 228.6164703,200.043457 C228.5611267,199.6450195 228.4836578,199.2133789 228.3840485,198.7485352 C229.1366425,198.8149414 229.7951813,198.8481445 230.3596344,198.8481445 C230.9572754,198.8481445 231.2561035,198.4995117 231.2561188,197.8022461 L231.2561188,187.3266602 L224.416275,187.3266602 L224.416275,200.2758789 L223.2541656,200.2758789 Z M217.9084625,186.081543 L221.9260406,186.081543 L221.9260406,197.5532227 L220.7639313,197.5532227 L220.7639313,196.2915039 L219.0705719,196.2915039 L219.0705719,197.8022461 L217.9084625,197.8022461 Z M225.6447906,189.5180664 L230.0276031,189.5180664 L230.0276031,196.0258789 L226.7736969,196.0258789 L226.7736969,196.7563477 L225.6447906,196.7563477 Z M220.7639313,187.2270508 L219.0705719,187.2270508 L219.0705719,195.1459961 L220.7639313,195.1459961 Z M228.8986969,190.5473633 L226.7736969,190.5473633 L226.7736969,194.996582 L228.8986969,194.996582 Z M242.2048492,184.3549805 L243.4167633,183.7075195 C243.8926697,184.3162384 244.3464508,184.974762 244.7780914,185.6831055 L243.9729156,186.1479492 L250.7048492,186.1479492 L250.7048492,187.409668 L237.7722321,187.409668 L237.7722321,191.4770508 C237.7722321,195.3950195 236.9642792,198.3224182 235.3484039,200.2592773 C235.0827789,199.894043 234.7618103,199.512207 234.3855133,199.1137695 C235.7136383,197.6306915 236.3777008,195.0961914 236.3777008,191.5102539 L236.3777008,186.1479492 L243.4001617,186.1479492 C243.040451,185.5392151 242.6420135,184.9415588 242.2048492,184.3549805 Z M237.6726227,198.0180664 L245.3508453,198.0180664 C246.2141266,195.8100586 247.1299744,192.7885742 248.0984039,188.9536133 L249.5427399,189.3520508 C248.5079041,193.0043945 247.5892792,195.8930664 246.7868805,198.0180664 L250.8874664,198.0180664 L250.8874664,199.2797852 L237.6726227,199.2797852 Z M238.5691071,189.8666992 L239.8308258,189.4350586 C240.5170135,191.4493713 241.181076,193.7071838 241.8230133,196.2084961 L240.4118805,196.6401367 C239.9027557,194.4487305 239.2884979,192.190918 238.5691071,189.8666992 Z M242.5700836,189.0366211 L243.8484039,188.6713867 C244.4239197,190.6635742 244.9330292,192.8937073 245.3757477,195.3618164 L243.9148102,195.7436523 C243.5938416,193.5522461 243.1455994,191.3165588 242.5700836,189.0366211 Z M254.0500641,193.6518555 L254.0500641,192.5063477 L265.3391113,192.5063477 L265.3391113,193.6518555 C264.2876892,195.0353088 263.0231934,196.2084961 261.5456543,197.1713867 C263.3441772,198.034668 265.6932983,198.5714417 268.5930176,198.7817383 C268.1945801,199.3351135 267.8736267,199.7999573 267.630127,200.1762695 C264.6640015,199.7722931 262.2097168,199.0141602 260.267334,197.9018555 C258.3969116,198.8647461 255.9592285,199.6616211 252.954361,200.2924805 C252.6776581,199.8608398 252.3954315,199.4513245 252.1076813,199.0639648 C255.0018768,198.565918 257.3233337,197.918457 259.0720215,197.121582 C257.8656616,196.2195587 256.8252869,195.0629883 255.950943,193.6518555 Z M252.4397125,185.9487305 L260.0100098,185.9487305 C259.6669312,185.3289337 259.3515015,184.7921448 259.0637207,184.3383789 L260.2590332,183.7573242 C260.8013611,184.598465 261.1776733,185.2182617 261.3879395,185.6166992 L260.7487793,185.9487305 L268.2941895,185.9487305 L268.2941895,187.1274414 L262.9318848,187.1274414 L262.9318848,191.7426758 L261.6535645,191.7426758 L261.6535645,187.1274414 L258.9807129,187.1274414 L258.9807129,191.7758789 L257.7023926,191.7758789 L257.7023926,187.1274414 L252.4397125,187.1274414 Z M263.7121582,193.6518555 L257.4450684,193.6518555 C258.2585449,194.8582306 259.2159119,195.7989807 260.3171387,196.4741211 C261.6452637,195.6883087 262.776947,194.7475586 263.7121582,193.6518555 Z M263.9279785,188.8706055 L264.8410645,188.090332 C266.2577515,189.3631134 267.4198608,190.4864807 268.3273926,191.4604492 L267.2980957,192.3735352 C266.2245483,191.1671448 265.1011658,189.9995117 263.9279785,188.8706055 Z M255.4944,188.0571289 L256.4904785,188.9038086 C255.3615875,190.1987305 254.2492828,191.3719025 253.1535797,192.4233398 C252.8768768,192.1134338 252.5559082,191.8035431 252.1906891,191.4936523 C253.3527985,190.4975586 254.4540253,189.3520508 255.4944,188.0571289 Z M274.229248,194.1333008 C275.6791382,193.4581604 277.0349121,192.6806641 278.2966309,191.8007813 L278.2966309,184.1889648 L279.7243652,184.1889648 L279.7243652,190.7299805 C281.4177246,189.3631134 282.9229431,187.785965 284.2399902,185.9985352 L285.4519043,186.878418 C283.8415527,189.0200195 281.932373,190.893219 279.7243652,192.4980469 L279.7243652,197.1879883 C279.7243652,197.9405823 280.1228027,198.3168945 280.9196777,198.3168945 L283.0280762,198.3168945 C283.7807007,198.3168945 284.217865,197.9571838 284.3395996,197.237793 C284.4945679,196.4851837 284.5941772,195.6163635 284.6384277,194.6313477 C285.1032715,194.8084259 285.590271,194.9689026 286.0993652,195.112793 C286.0108337,196.0424805 285.8946228,196.8946838 285.7507324,197.6694336 C285.5404663,198.942215 284.7435913,199.5786133 283.3601074,199.5786133 L280.5544434,199.5786133 C279.0492554,199.5786133 278.2966309,198.8370667 278.2966309,197.3540039 L278.2966309,193.4692383 C277.2618103,194.1333008 276.1716309,194.7420197 275.026123,195.2954102 C274.7937012,194.9301758 274.5280762,194.5428009 274.229248,194.1333008 Z M269.564209,192.0913086 C271.4899902,189.534668 272.9066772,186.8175354 273.814209,183.9399414 L275.2585449,184.3549805 C274.7328491,185.7273712 274.1628418,187.0195313 273.548584,188.2314453 L273.548584,200.1098633 L272.1540527,200.1098633 L272.1540527,190.7299805 C271.5397949,191.7260742 270.8868103,192.6612854 270.1950684,193.5356445 C270.0069275,193.0597229 269.7966309,192.5782776 269.564209,192.0913086 Z M287.1369629,198.5327148 L294.7404785,198.5327148 L294.7404785,197.3041992 L288.4318848,197.3041992 L288.4318848,196.324707 L294.7404785,196.324707 L294.7404785,194.9301758 L290.2580566,194.9301758 L290.2580566,195.527832 L289.0959473,195.527832 L289.0959473,189.2856445 L294.7404785,189.2856445 L294.7404785,188.090332 L287.2697754,188.090332 L287.2697754,187.0610352 L294.7404785,187.0610352 L294.7404785,185.7578125 C292.7316895,185.8186798 290.6509705,185.8712463 288.498291,185.9155273 C288.4318848,185.5613556 288.3544312,185.1850586 288.2658691,184.7866211 C293.8771973,184.7202148 298.4205017,184.5708008 301.895752,184.3383789 L302.0949707,185.4672852 C300.124939,185.5613556 298.0718689,185.6471252 295.935791,185.7246094 L295.935791,187.0610352 L303.4729004,187.0610352 L303.4729004,188.090332 L295.935791,188.090332 L295.935791,189.2856445 L301.630127,189.2856445 L301.630127,195.5112305 L300.4680176,195.5112305 L300.4680176,194.9301758 L295.935791,194.9301758 L295.935791,196.324707 L302.2609863,196.324707 L302.2609863,197.3041992 L295.935791,197.3041992 L295.935791,198.5327148 L303.4729004,198.5327148 L303.4729004,199.5620117 L287.1369629,199.5620117 Z M295.935791,193.9672852 L300.4680176,193.9672852 L300.4680176,192.5395508 L295.935791,192.5395508 Z M290.2580566,193.9672852 L294.7404785,193.9672852 L294.7404785,192.5395508 L290.2580566,192.5395508 Z M300.4680176,190.2485352 L295.935791,190.2485352 L295.935791,191.659668 L300.4680176,191.659668 Z M290.2580566,191.659668 L294.7404785,191.659668 L294.7404785,190.2485352 L290.2580566,190.2485352 Z M304.6765137,190.6635742 L312.3962402,190.6635742 L312.3962402,186.3803711 L306.0046387,186.3803711 L306.0046387,185.0688477 L319.7507324,185.0688477 L319.7507324,186.3803711 L313.7907715,186.3803711 L313.7907715,190.6635742 L321.0124512,190.6635742 L321.0124512,191.9750977 L313.7907715,191.9750977 L313.7907715,197.6694336 C313.7907715,198.4220276 313.6524353,198.9643555 313.3757324,199.2963867 C313.0658569,199.6837463 312.4848022,199.888504 311.6325684,199.9106445 C311.1345215,199.9106445 310.1993103,199.9051056 308.8269043,199.894043 C308.7715759,199.3849182 308.6830444,198.8813477 308.5612793,198.3833008 C309.8119507,198.4718323 310.6807556,198.5161133 311.1677246,198.5161133 C311.6657715,198.5161133 311.9978027,198.4220276 312.1638184,198.2338867 C312.3187866,198.0789337 312.3962402,197.7303009 312.3962402,197.1879883 L312.3962402,191.9750977 L304.6765137,191.9750977 Z M327.661377,196.1918945 L328.1179199,195.5610352 L326.1340332,195.5610352 L326.1340332,194.6313477 L334.5510254,194.6313477 L334.5510254,193.5522461 L327.9768066,193.5522461 L327.9768066,194.0004883 L326.9143066,194.0004883 L326.9143066,187.2602539 L330.2180176,187.2602539 L330.2180176,186.1479492 L326.3166504,186.1479492 L326.3166504,185.2182617 L329.5622559,185.2182617 C329.3575134,184.9138947 329.1333923,184.598465 328.8898926,184.2719727 L329.8195801,183.7573242 C330.1626892,184.222168 330.5002441,184.709137 330.8322754,185.2182617 L333.2976074,185.2182617 C333.7126465,184.7146759 334.0751343,184.222168 334.3850098,183.7407227 L335.364502,184.2553711 C335.1154785,184.5874023 334.8609314,184.9083557 334.6008301,185.2182617 L337.904541,185.2182617 L337.904541,186.1479492 L333.9533691,186.1479492 L333.9533691,187.2602539 L337.1740723,187.2602539 L337.1740723,193.5522461 L335.6799316,193.5522461 L335.6799316,194.6313477 L338.1037598,194.6313477 L338.1037598,195.5610352 L335.6799316,195.5610352 L335.6799316,196.175293 C335.6799316,197.3152618 335.0878296,197.8907776 333.9035645,197.9018555 C333.1066895,197.9129181 332.414978,197.9073792 331.8283691,197.8852539 C331.7841187,197.5200195 331.7011108,197.1160431 331.5793457,196.6733398 C332.2987671,196.7618713 333.0070801,196.8061523 333.7043457,196.8061523 C334.2687988,196.8061523 334.5510254,196.5349884 334.5510254,195.9926758 L334.5510254,195.5610352 L328.4997559,195.5610352 C329.1029663,195.8985901 329.7808533,196.2970276 330.5334473,196.7563477 L329.8693848,197.6362305 C329.1942749,197.1492462 328.458252,196.6678009 327.661377,196.1918945 Z M328.8898926,198.449707 L333.388916,198.4995117 L338.6350098,198.3334961 C338.4136658,198.7761993 338.2365723,199.2189026 338.1037598,199.6616211 L332.326416,199.7280273 L328.6906738,199.6616211 C326.8202515,199.6173401 325.4921265,198.9643555 324.7062988,197.7026367 C324.3189392,198.0014648 323.677002,198.7263947 322.7805176,199.8774414 L322.0666504,198.4663086 C322.9133301,197.6860352 323.6105957,197.0579376 324.1584473,196.5820313 L324.1584473,190.8129883 L322.1994629,190.8129883 L322.1994629,189.6674805 L325.3537598,189.6674805 L325.3537598,196.78125 C326.1174316,197.8548126 327.2961426,198.410965 328.8898926,198.449707 Z M327.9768066,190.9624023 L336.1115723,190.9624023 L336.1115723,190.2983398 L334.0197754,190.2983398 C333.2893066,190.2983398 332.9240723,189.8943634 332.9240723,189.0864258 L332.9240723,188.1401367 L331.1975098,188.1401367 C331.0259705,189.3686523 330.3785095,190.2761993 329.255127,190.862793 C329.0559082,190.5750275 328.7902832,190.2817383 328.458252,189.9829102 C329.3990173,189.639801 329.9606934,189.0255432 330.1433105,188.1401367 L327.9768066,188.1401367 Z M336.1115723,192.6723633 L336.1115723,191.7924805 L327.9768066,191.7924805 L327.9768066,192.6723633 Z M323.7932129,184.222168 C324.4351501,185.2514648 325.0328064,186.2862854 325.5861816,187.3266602 C325.243103,187.4926758 324.8723145,187.6918945 324.473877,187.9243164 C323.942627,186.762207 323.383728,185.699707 322.7971191,184.7368164 Z M336.1115723,188.1401367 L333.9533691,188.1401367 L333.9533691,188.8540039 C333.9533691,189.1749573 334.1193848,189.3354492 334.451416,189.3354492 L336.1115723,189.3354492 Z M331.2473145,187.2602539 L332.9240723,187.2602539 L332.9240723,186.1479492 L331.2473145,186.1479492 Z M350.4138184,186.2475586 L351.6091309,186.2475586 L351.6091309,187.940918 L355.9089355,187.940918 L355.9089355,189.0698242 L351.6091309,189.0698242 L351.6091309,190.6635742 L354.829834,190.6635742 L354.829834,200.1264648 L353.6345215,200.1264648 L353.6345215,199.1303711 L348.3718262,199.1303711 L348.3718262,200.1264648 L347.1765137,200.1264648 L347.1765137,190.6635742 L350.4138184,190.6635742 L350.4138184,189.0698242 L346.1140137,189.0698242 L346.1140137,191.3774414 C346.125061,195.3175354 345.5440063,198.256012 344.3708496,200.1928711 C344.0388184,199.8386993 343.6625061,199.5177307 343.2419434,199.2299805 C344.3486938,197.7358398 344.9020996,195.1625977 344.9020996,191.5102539 L344.9020996,185.168457 C348.3883972,185.013504 351.7751465,184.7589417 355.0622559,184.4047852 L355.2780762,185.6166992 C352.8874512,185.8269806 349.8327637,186.037262 346.1140137,186.2475586 L346.1140137,187.940918 L350.4138184,187.940918 Z M339.572998,193.6186523 C340.856842,192.30159 342.0410767,190.6082306 343.1257324,188.5385742 L344.204834,189.1362305 C343.7621155,189.9386292 343.319397,190.6829376 342.876709,191.3691406 L342.876709,200.2094727 L341.6647949,200.2094727 L341.6647949,193.1123047 C341.1445923,193.7984924 340.6244202,194.4099884 340.104248,194.9467773 C339.9714355,194.537262 339.794342,194.0945587 339.572998,193.6186523 Z M339.6228027,188.5053711 C341.0283813,187.2879181 342.229248,185.7439728 343.2253418,183.8735352 L344.3376465,184.5043945 C343.142334,186.5408478 341.7810059,188.2618713 340.2536621,189.6674805 C340.0986938,189.2911682 339.8883972,188.9038086 339.6228027,188.5053711 Z M353.6345215,191.7592773 L348.3718262,191.7592773 L348.3718262,193.1704102 L353.6345215,193.1704102 Z M348.3718262,195.6108398 L353.6345215,195.6108398 L353.6345215,194.199707 L348.3718262,194.199707 Z M348.3718262,198.034668 L353.6345215,198.034668 L353.6345215,196.6401367 L348.3718262,196.6401367 Z M362.4416504,189.6176758 L367.2727051,189.6176758 L367.2727051,183.9067383 L368.7004395,183.9067383 L368.7004395,189.6176758 L373.5646973,189.6176758 L373.5646973,190.8129883 L368.7004395,190.8129883 L368.7004395,200.1762695 L367.2727051,200.1762695 L367.2727051,190.8129883 L362.4416504,190.8129883 Z M363.9689941,195.5942383 C364.0021973,196.169754 364.0409241,196.6511993 364.0852051,197.0385742 C362.3143616,198.14534 360.8534241,199.1082306 359.7023926,199.9272461 L358.9055176,198.7983398 C359.2928772,198.4663086 359.4865723,197.9627228 359.4865723,197.2875977 L359.4865723,190.7133789 L357.1291504,190.7133789 L357.1291504,189.5180664 L360.8146973,189.5180664 L360.8146973,197.5864258 C361.7775879,196.9998322 362.82901,196.3357697 363.9689941,195.5942383 Z M358.8225098,184.1225586 C360.0288696,185.3621368 360.9032288,186.2807617 361.4455566,186.878418 L360.2834473,187.8579102 C359.5861816,186.9392853 358.7616272,185.9874573 357.8098145,185.0024414 Z M374.5690918,198.0678711 C375.9967957,197.3208008 377.3000488,196.4326172 378.4787598,195.4033203 C378.0360413,194.1305237 377.7372131,192.2905273 377.5822754,189.8833008 L375.0505371,190.331543 L374.8513184,189.152832 L377.5158691,188.6879883 C377.4439087,187.293457 377.3802795,185.7329102 377.3249512,184.0063477 L378.6530762,184.0063477 C378.6807251,185.6443634 378.722229,187.1329651 378.7775879,188.472168 L384.1647949,187.5258789 L384.314209,188.6879883 L378.8356934,189.6591797 C378.9629517,191.7177734 379.1870728,193.3170471 379.5080566,194.4570313 C380.7254944,193.2395782 381.7962952,191.8533478 382.720459,190.2983398 L383.8327637,190.9956055 C382.6817017,192.8106995 381.3867798,194.4072266 379.947998,195.7851563 C380.4626465,197.0966797 381.126709,198.0014648 381.9401855,198.4995117 C382.5378113,198.8536682 382.9196777,198.6931915 383.0856934,198.0180664 C383.2295532,197.2543945 383.356842,196.4021759 383.4675293,195.4614258 C383.9987793,195.6827698 384.4359436,195.8432617 384.7790527,195.9428711 C384.5687561,197.193512 384.375061,198.1342773 384.197998,198.7651367 C383.9766235,199.6505432 383.473053,200.0932617 382.6872559,200.0932617 C382.0674438,200.0932617 381.4697876,199.8774414 380.8942871,199.4458008 C380.1195374,198.7928009 379.4748535,197.8714142 378.9602051,196.6816406 C377.8866272,197.6002502 376.7383423,198.410965 375.5153809,199.1137695 C375.282959,198.826004 374.9675293,198.4773712 374.5690918,198.0678711 Z M388.7800293,183.9897461 L390.0915527,183.9897461 L390.0915527,197.8520508 C390.0915527,199.2355042 389.4496155,199.9327698 388.1657715,199.9438477 C387.5680847,199.9549103 386.7380066,199.9493713 385.6755371,199.9272461 C385.6201782,199.4181213 385.5316467,198.9477539 385.4099121,198.5161133 C386.2289124,198.5935822 387.0036621,198.6378479 387.7341309,198.6489258 C388.4313965,198.6599884 388.7800293,198.2892151 388.7800293,197.5366211 Z M386.5720215,195.7270508 L385.2937012,195.7270508 L385.2937012,185.5834961 L386.5720215,185.5834961 Z M379.682373,185.2348633 L380.4460449,184.4213867 C381.2096863,184.974762 381.9567566,185.5668945 382.6872559,186.1977539 L381.807373,187.144043 C381.2097168,186.5353088 380.5013733,185.8989258 379.682373,185.2348633 Z" style="fill:rgb(10,92,185);stroke:none" clip-path="url(#clip22)" />
<clipPath id="clip23"><path d="M195,182 L215,182 L215,202 L195,202 L195,182 Z" /></clipPath>
<path d="M202.5708313,194.34375 L202.5708313,201.0090027 L200.3208313,201.0090027 L200.3208313,189.7545013 L200.3208313,183 L213.8208313,189.1875 L202.5708313,194.34375 Z" style="fill:rgb(0,209,86);stroke:none" clip-path="url(#clip23)" />
</svg>
